<svg version="1.2" xmlns="http://www.w3.org/2000/svg" viewBox="0 0 64 64" width="64" height="64">
	<style>
		.s0 { opacity: .78;fill: #4ef933 } 
	</style>
	<path id="Path 0" fill-rule="evenodd" class="s0" d="m31 3.03c3.02-0.01 7.08 0.41 9 0.92 1.92 0.52 5.73 2.43 8.47 4.25 3.41 2.27 6.05 5.18 8.44 9.3 2.73 4.7 3.58 7.41 3.94 12.5 0.38 5.51 0.04 7.41-2.26 12.5-1.48 3.3-4.14 7.52-5.89 9.37-1.76 1.86-5.9 4.67-9.2 6.25-4.37 2.09-7.5 2.88-11.5 2.88-4 0-7.13-0.79-11.5-2.88-3.3-1.58-7.44-4.39-9.2-6.25-1.75-1.85-4.41-6.07-5.89-9.37-2.31-5.11-2.64-6.97-2.24-12.5 0.37-5.04 1.24-7.84 3.9-12.44 1.89-3.26 4.78-6.95 6.43-8.18 1.65-1.24 5.02-3.17 7.5-4.29 2.76-1.26 6.62-2.05 10-2.06zm-17.54 12.06c-1.68 1.87-3.89 5.66-4.92 8.41-1.44 3.84-1.73 6.4-1.25 11 0.43 4.03 1.56 7.48 3.45 10.5 1.55 2.47 5.06 5.97 7.79 7.77 2.73 1.8 6.77 3.54 8.97 3.87 2.2 0.32 6.02 0.32 8.5 0 2.61-0.34 6.59-1.97 9.47-3.87 2.73-1.8 6.24-5.3 7.79-7.77 1.89-3.02 3.02-6.47 3.45-10.5 0.48-4.6 0.19-7.16-1.25-11-1.03-2.75-3.24-6.54-4.92-8.41-1.67-1.88-5.29-4.46-8.04-5.74q-5-2.33-10.5-2.33-5.5 0-10.5 2.33c-2.75 1.28-6.37 3.86-8.04 5.74z"/>
</svg>